# xmcd
#
# Track frame offsets:
#	150
#	9569
#	21895
#	36484
#	48560
#	60871
#	74530
#	89674
#	100290
#	117739
#	133951
#	146404
#	163123
#	175275
#	187360
#	199859
#	211703
#	225539
#
# Disc length: 3220 seconds
#
# Revision: 2
# Processed by: cddbd v1.5.2PL0 Copyright (c) Steve Scherf et al.
# Submitted via: audiograbber 1.83.01
#
DISCID=130c9212
DTITLE=Various Artist - Country Duets
DYEAR=1998
DGENRE=Country
TTITLE0=Glen Campbell and Bobbie Gentry - Let It Be Me
TTITLE1=Willie Nelson and Shirley Collie - Willingly
TTITLE2=Glen Campbell and Anne Murray - I Say A Little Prayer_By The Time I Get T
TTITLE2=o Phoenix
TTITLE3=Georges Jones and Melba Montgomery - We Must Have Been Out Of Our Minds
TTITLE4=Billie Jo Spears and Del Reeves - Teardrops Will Kiss The Morning Dew
TTITLE5=George Jones and Tammy Wynette - Golden Ring
TTITLE6=Reba Mcentire and Vince Gill - The Heart Won't Lie
TTITLE7=Charlie Louvin and Meta Montgomery - Something To Brag About
TTITLE8=Marie Osmond and Dan Seals - Meet Me In Montana
TTITLE9=Tammy Wynette and David Houston - My Exclusive Dreams
TTITLE10=Bill Anderson and Jan Heward - For Loving You
TTITLE11=Tanya Tucker and Delbert McClinton - Tell Me About
TTITLE12=Glen Campbell and Rita Coolidge - Something About You Baby I Like
TTITLE13=Charlie Louvin and Melba Montgomery - Baby You've Got What It Takes
TTITLE14=Suzy Boguss and Lee Greenwood - Hopelessly Yours
TTITLE15=Moretta Lynn and Conway Twittly - After The Fire Is Gone
TTITLE16=The Kendalls - Crying Time
TTITLE17=Suzzy Bogguss and Billy Dean - Something Up My Sleave
EXTD=
EXTT0=
EXTT1=
EXTT2=
EXTT3=
EXTT4=
EXTT5=
EXTT6=
EXTT7=
EXTT8=
EXTT9=
EXTT10=
EXTT11=
EXTT12=
EXTT13=
EXTT14=
EXTT15=
EXTT16=
EXTT17=
PLAYORDER=
